<svg xmlns="http://www.w3.org/2000/svg" xmlns:xlink="http://www.w3.org/1999/xlink" fill="none" viewBox="0 0 128 38">
  <defs>
    <path id="a" fill="#F2F2F2" fill-rule="evenodd" d="M27.9 32c-3.85.61-8-.15-11.62-2.44C8.61 24.72 6.15 14.83 10.8 7.48c.3-.5.64-.96 1-1.4-3.33 6.9-.79 15.53 6.14 19.9 6.33 4 14.26 3.19 19.26-1.51a19 19 0 1 0-9.63 11.5A19.9 19.9 0 0 1 2.47 21.1 19.9 19.9 0 0 0 27.89 32Z" clip-rule="evenodd"/>
  </defs>
  <path fill="#F2F2F2" d="M46 13.5h1.6L50.8 24 54 13.5h1.53l3.3 10.5 3.1-10.5h1.62L59.64 26h-1.61l-3.34-10.44L51.57 26h-1.61L46 13.5Zm26.4 0h1.8l3.23 5.16 3.3-5.16h1.7l-4.32 6.58V26H76.6v-5.92l-4.2-6.58Zm20.4 0h1.93l6.91 10.46V13.5h1.52V26h-1.92l-6.92-10.48V26H92.8V13.5Zm23.76 1.32v9.86h1.85a20.1 20.1 0 0 0 1.38-.06 4.69 4.69 0 0 0 2.26-.8 4.03 4.03 0 0 0 1.2-1.44c.4-.74.6-1.65.6-2.71 0-.74-.11-1.4-.34-2-.21-.6-.5-1.08-.86-1.45a4.5 4.5 0 0 0-2.43-1.33 7.34 7.34 0 0 0-1.19-.07h-2.47Zm2.42-1.32c.82 0 1.56.08 2.24.25a5.35 5.35 0 0 1 2.87 1.67c.32.37.58.78.76 1.24a7.04 7.04 0 0 1 .52 2.7 7.48 7.48 0 0 1-.56 3.11 5.04 5.04 0 0 1-2.02 2.52 5.6 5.6 0 0 1-1.72.75 13.62 13.62 0 0 1-3.27.26h-2.75V13.5h3.93Z"/>
  <path fill="#F2F2F2" d="M128 19.15v1.45h-15.73v-1.45H128Z"/>
  <use xlink:href="#a" fill-rule="evenodd" clip-rule="evenodd"/>
  <use xlink:href="#a" fill-rule="evenodd" clip-rule="evenodd"/>
</svg>
