<svg width="44" height="44" viewBox="0 0 44 44" fill="none"><path fill-rule="evenodd" clip-rule="evenodd" d="M41.7859 30.9352C42.9916 28.205 43.6617 25.1813 43.6617 22C43.6617 9.84973 33.8875 0 21.8308 0C9.774 0 0 9.84973 0 22C0 34.1501 9.774 44 21.8308 44C22.3887 44 22.9418 43.9789 23.489 43.9375C22.3125 43.8209 21.1296 43.606 19.9502 43.2875C11.7382 41.0702 5.8804 34.4184 4.23387 26.5736C6.79627 32.5092 11.922 37.2548 18.6085 39.0603C23.4111 40.357 28.269 39.9347 32.5388 38.1675C25.383 38.5143 18.2042 35.3084 13.7219 29.003C8.77094 22.0381 8.43163 13.1512 12.0983 6.03507C10.3415 12.2612 11.3153 19.2066 15.3466 24.8778C21.0955 32.9653 31.2801 35.9534 40.1629 32.8869C40.7384 32.2714 41.2809 31.62 41.7859 30.9352Z" fill="url(#paint0_linear_1_14)"></path><defs><linearGradient id="paint0_linear_1_14" x1="4.59737" y1="19.789" x2="42.7766" y2="14.5788" gradientUnits="userSpaceOnUse"><stop stop-color="#348CF4"></stop><stop offset="1" stop-color="#69E166"></stop></linearGradient></defs></svg>
